<svg xmlns="http://www.w3.org/2000/svg" xmlns:xlink="http://www.w3.org/1999/xlink" contentStyleType="text/css" height="701.25px" preserveAspectRatio="none" style="width:2277px;height:701px;background:#FFFFFF;" version="1.1" viewBox="0 0 2277 701" width="2277.9167px" zoomAndPan="magnify"><title>3. Simulacion: motor dirigido por eventos</title><defs/><g><text fill="#000000" font-family="DejaVu Sans" font-size="16.0417" font-weight="bold" lengthAdjust="spacing" textLength="377.0575" x="942.7506" y="26.3486">3. Simulacion: motor dirigido por eventos</text><!--class MotorSimulacion--><g id="elem_MotorSimulacion"><rect codeLine="4" fill="#FDFDFD" height="153.1209" id="MotorSimulacion" rx="2.8646" ry="2.8646" style="stroke:#4A5A6A;stroke-width:0.5729;" width="301.9534" x="1196.25" y="50.7568"/><rect fill="#E8EEF4" height="32.0833" rx="2.8646" ry="2.8646" style="stroke:#E8EEF4;stroke-width:0.5729;" width="301.9534" x="1196.25" y="50.7568"/><rect fill="#E8EEF4" height="2.8646" style="stroke:#E8EEF4;stroke-width:0.5729;" width="301.9534" x="1196.25" y="79.9756"/><rect codeLine="4" fill="none" height="153.1209" id="MotorSimulacion" rx="2.8646" ry="2.8646" style="stroke:#4A5A6A;stroke-width:0.5729;" width="301.9534" x="1196.25" y="50.7568"/><ellipse cx="1290.156" cy="66.7985" fill="#ADD1B2" rx="10.3125" ry="10.3125" style="stroke:#181818;stroke-width:1.1458;"/><path d="M1291.6599,71.1133 Q1291.2302,71.346 1290.7468,71.4535 Q1290.2813,71.5609 1289.7442,71.5609 Q1287.9002,71.5609 1286.9155,70.3434 Q1285.9308,69.1081 1285.9308,66.7985 Q1285.9308,64.471 1286.9155,63.2536 Q1287.9002,62.0182 1289.7442,62.0182 Q1290.2813,62.0182 1290.7468,62.1436 Q1291.2302,62.251 1291.6599,62.4658 L1291.6599,64.4889 Q1291.1765,64.0592 1290.7289,63.8623 Q1290.2993,63.6654 1289.8338,63.6654 Q1288.8491,63.6654 1288.3298,64.4531 Q1287.8285,65.2409 1287.8285,66.7985 Q1287.8285,68.3561 1288.3298,69.1439 Q1288.8491,69.9316 1289.8338,69.9316 Q1290.2993,69.9316 1290.7289,69.7347 Q1291.1765,69.5378 1291.6599,69.0902 L1291.6599,71.1133 Z " fill="#000000"/><text fill="#000000" font-family="DejaVu Sans" font-size="12.6042" lengthAdjust="spacing" textLength="105.5476" x="1310.2081" y="71.162">MotorSimulacion</text><line style="stroke:#4A5A6A;stroke-width:0.5729;" x1="1197.3958" x2="1497.0575" y1="82.8402" y2="82.8402"/><text fill="#000000" font-family="DejaVu Sans" font-size="12.6042" lengthAdjust="spacing" textLength="251.1909" x="1203.125" y="99.123">-configuracion : ConfiguracionEscenario</text><text fill="#000000" font-family="DejaVu Sans" font-size="12.6042" lengthAdjust="spacing" textLength="138.812" x="1203.125" y="113.795">-algoritmo : Algoritmo</text><text fill="#000000" font-family="DejaVu Sans" font-size="12.6042" lengthAdjust="spacing" textLength="288.2034" x="1203.125" y="128.4671">-observadores : List&lt;ObservadorSimulacion&gt;</text><line style="stroke:#4A5A6A;stroke-width:0.5729;" x1="1197.3958" x2="1497.0575" y1="136.0229" y2="136.0229"/><text fill="#000000" font-family="DejaVu Sans" font-size="12.6042" lengthAdjust="spacing" textLength="216.5049" x="1203.125" y="152.3058">+ejecutar() : ResultadoSimulacion</text><text fill="#000000" font-family="DejaVu Sans" font-size="12.6042" lengthAdjust="spacing" textLength="113.0621" x="1203.125" y="166.9778">+cancelar() : void</text><text fill="#000000" font-family="DejaVu Sans" font-size="12.6042" lengthAdjust="spacing" textLength="251.6833" x="1203.125" y="181.6498">+instantanea() : InstantaneaSimulacion</text><text fill="#000000" font-family="DejaVu Sans" font-size="12.6042" lengthAdjust="spacing" textLength="272.0728" x="1203.125" y="196.3219">+registrarAveria(codigoUnidad, tipo) : void</text></g><!--class ConfiguracionEscenario--><g id="elem_ConfiguracionEscenario"><rect codeLine="14" fill="#FDFDFD" height="123.3293" id="ConfiguracionEscenario" rx="2.8646" ry="2.8646" style="stroke:#4A5A6A;stroke-width:0.5729;" width="180.8716" x="8.0208" y="289.0902"/><rect fill="#E8EEF4" height="40.8024" rx="2.8646" ry="2.8646" style="stroke:#E8EEF4;stroke-width:0.5729;" width="180.8716" x="8.0208" y="289.0902"/><rect fill="#E8EEF4" height="2.8646" style="stroke:#E8EEF4;stroke-width:0.5729;" width="180.8716" x="8.0208" y="327.028"/><rect codeLine="14" fill="none" height="123.3293" id="ConfiguracionEscenario" rx="2.8646" ry="2.8646" style="stroke:#4A5A6A;stroke-width:0.5729;" width="180.8716" x="8.0208" y="289.0902"/><ellipse cx="22.9167" cy="309.4914" fill="#ADD1B2" rx="10.3125" ry="10.3125" style="stroke:#181818;stroke-width:1.1458;"/><path d="M24.4206,313.8062 Q23.9909,314.0389 23.5075,314.1463 Q23.042,314.2537 22.5049,314.2537 Q20.6608,314.2537 19.6761,313.0363 Q18.6914,311.8009 18.6914,309.4914 Q18.6914,307.1639 19.6761,305.9465 Q20.6608,304.7111 22.5049,304.7111 Q23.042,304.7111 23.5075,304.8364 Q23.9909,304.9438 24.4206,305.1587 L24.4206,307.1818 Q23.9372,306.7521 23.4896,306.5552 Q23.0599,306.3582 22.5944,306.3582 Q21.6097,306.3582 21.0905,307.146 Q20.5892,307.9338 20.5892,309.4914 Q20.5892,311.049 21.0905,311.8368 Q21.6097,312.6245 22.5944,312.6245 Q23.0599,312.6245 23.4896,312.4276 Q23.9372,312.2306 24.4206,311.783 L24.4206,313.8062 Z " fill="#000000"/><text fill="#000000" font-family="DejaVu Sans" font-size="12.6042" font-style="italic" lengthAdjust="spacing" textLength="56.1833" x="82.9691" y="306.5188">&#171;record&#187;</text><text fill="#000000" font-family="DejaVu Sans" font-size="12.6042" lengthAdjust="spacing" textLength="148.7882" x="36.6667" y="321.1908">ConfiguracionEscenario</text><line style="stroke:#4A5A6A;stroke-width:0.5729;" x1="9.1667" x2="187.7466" y1="329.8926" y2="329.8926"/><text fill="#000000" font-family="DejaVu Sans" font-size="12.6042" lengthAdjust="spacing" textLength="124.6508" x="14.8958" y="346.1754">tipo : TipoEscenario</text><text fill="#000000" font-family="DejaVu Sans" font-size="12.6042" lengthAdjust="spacing" textLength="138.1042" x="14.8958" y="360.8474">primerDia : LocalDate</text><text fill="#000000" font-family="DejaVu Sans" font-size="12.6042" lengthAdjust="spacing" textLength="136.1287" x="14.8958" y="375.5195">ultimoDia : LocalDate</text><text fill="#000000" font-family="DejaVu Sans" font-size="12.6042" lengthAdjust="spacing" textLength="108.7109" x="14.8958" y="390.1915">saltoMinutos : int</text><text fill="#000000" font-family="DejaVu Sans" font-size="12.6042" lengthAdjust="spacing" textLength="110.428" x="14.8958" y="404.8635">algoritmo : String</text></g><!--class EstadoSimulacion--><g id="elem_EstadoSimulacion"><rect codeLine="22" fill="#FDFDFD" height="123.7769" id="EstadoSimulacion" rx="2.8646" ry="2.8646" style="stroke:#4A5A6A;stroke-width:0.5729;" width="309.5417" x="229.1667" y="289.0902"/><rect fill="#E8EEF4" height="32.0833" rx="2.8646" ry="2.8646" style="stroke:#E8EEF4;stroke-width:0.5729;" width="309.5417" x="229.1667" y="289.0902"/><rect fill="#E8EEF4" height="2.8646" style="stroke:#E8EEF4;stroke-width:0.5729;" width="309.5417" x="229.1667" y="318.3089"/><rect codeLine="22" fill="none" height="123.7769" id="EstadoSimulacion" rx="2.8646" ry="2.8646" style="stroke:#4A5A6A;stroke-width:0.5729;" width="309.5417" x="229.1667" y="289.0902"/><ellipse cx="323.6235" cy="305.1318" fill="#ADD1B2" rx="10.3125" ry="10.3125" style="stroke:#181818;stroke-width:1.1458;"/><path d="M325.1274,309.4466 Q324.6977,309.6794 324.2143,309.7868 Q323.7488,309.8942 323.2117,309.8942 Q321.3676,309.8942 320.3829,308.6768 Q319.3982,307.4414 319.3982,305.1318 Q319.3982,302.8044 320.3829,301.5869 Q321.3676,300.3516 323.2117,300.3516 Q323.7488,300.3516 324.2143,300.4769 Q324.6977,300.5843 325.1274,300.7992 L325.1274,302.8223 Q324.644,302.3926 324.1964,302.1956 Q323.7667,301.9987 323.3012,301.9987 Q322.3165,301.9987 321.7973,302.7865 Q321.296,303.5742 321.296,305.1318 Q321.296,306.6895 321.7973,307.4772 Q322.3165,308.265 323.3012,308.265 Q323.7667,308.265 324.1964,308.068 Q324.644,307.8711 325.1274,307.4235 L325.1274,309.4466 Z " fill="#000000"/><text fill="#000000" font-family="DejaVu Sans" font-size="12.6042" lengthAdjust="spacing" textLength="112.0343" x="343.6756" y="309.4953">EstadoSimulacion</text><line style="stroke:#4A5A6A;stroke-width:0.5729;" x1="230.3125" x2="537.5626" y1="321.1735" y2="321.1735"/><text fill="#000000" font-family="DejaVu Sans" font-size="12.6042" lengthAdjust="spacing" textLength="152.0685" x="236.0417" y="337.4563">-pedidos : List&lt;Pedido&gt;</text><text fill="#000000" font-family="DejaVu Sans" font-size="12.6042" lengthAdjust="spacing" textLength="182.982" x="236.0417" y="352.1283">-almacenes : List&lt;Almacen&gt;</text><line style="stroke:#4A5A6A;stroke-width:0.5729;" x1="230.3125" x2="537.5626" y1="359.6842" y2="359.6842"/><text fill="#000000" font-family="DejaVu Sans" font-size="12.6042" lengthAdjust="spacing" textLength="295.7917" x="236.0417" y="375.9671">+entregar(pedido, cantidad, minuto) : boolean</text><text fill="#000000" font-family="DejaVu Sans" font-size="12.6042" lengthAdjust="spacing" textLength="287.9264" x="236.0417" y="390.6391">+consumirInventario(almacen, cantidad) : int</text><text fill="#000000" font-family="DejaVu Sans" font-size="12.6042" lengthAdjust="spacing" textLength="210.1351" x="236.0417" y="405.3111">+metricas() : MetricasSimulacion</text></g><!--class UnidadEnCurso--><g id="elem_UnidadEnCurso"><rect codeLine="30" fill="#FDFDFD" height="109.1048" id="UnidadEnCurso" rx="2.8646" ry="2.8646" style="stroke:#4A5A6A;stroke-width:0.5729;" width="222.8388" x="272.7083" y="482.736"/><rect fill="#E8EEF4" height="32.0833" rx="2.8646" ry="2.8646" style="stroke:#E8EEF4;stroke-width:0.5729;" width="222.8388" x="272.7083" y="482.736"/><rect fill="#E8EEF4" height="2.8646" style="stroke:#E8EEF4;stroke-width:0.5729;" width="222.8388" x="272.7083" y="511.9548"/><rect codeLine="30" fill="none" height="109.1048" id="UnidadEnCurso" rx="2.8646" ry="2.8646" style="stroke:#4A5A6A;stroke-width:0.5729;" width="222.8388" x="272.7083" y="482.736"/><ellipse cx="331.5098" cy="498.7777" fill="#ADD1B2" rx="10.3125" ry="10.3125" style="stroke:#181818;stroke-width:1.1458;"/><path d="M333.0137,503.0924 Q332.584,503.3252 332.1006,503.4326 Q331.6351,503.54 331.098,503.54 Q329.2539,503.54 328.2692,502.3226 Q327.2845,501.0872 327.2845,498.7777 Q327.2845,496.4502 328.2692,495.2327 Q329.2539,493.9974 331.098,493.9974 Q331.6351,493.9974 332.1006,494.1227 Q332.584,494.2301 333.0137,494.445 L333.0137,496.4681 Q332.5303,496.0384 332.0827,495.8415 Q331.653,495.6445 331.1875,495.6445 Q330.2028,495.6445 329.6836,496.4323 Q329.1823,497.2201 329.1823,498.7777 Q329.1823,500.3353 329.6836,501.123 Q330.2028,501.9108 331.1875,501.9108 Q331.653,501.9108 332.0827,501.7139 Q332.5303,501.5169 333.0137,501.0693 L333.0137,503.0924 Z " fill="#000000"/><text fill="#000000" font-family="DejaVu Sans" font-size="12.6042" lengthAdjust="spacing" textLength="96.6422" x="351.5619" y="503.1411">UnidadEnCurso</text><line style="stroke:#4A5A6A;stroke-width:0.5729;" x1="273.8542" x2="494.4013" y1="514.8193" y2="514.8193"/><text fill="#000000" font-family="DejaVu Sans" font-size="12.6042" lengthAdjust="spacing" textLength="72.0555" x="279.5833" y="531.1021">-ruta : Ruta</text><text fill="#000000" font-family="DejaVu Sans" font-size="12.6042" lengthAdjust="spacing" textLength="123.3091" x="279.5833" y="545.7742">-averia : TipoAveria</text><line style="stroke:#4A5A6A;stroke-width:0.5729;" x1="273.8542" x2="494.4013" y1="553.3301" y2="553.3301"/><text fill="#000000" font-family="DejaVu Sans" font-size="12.6042" lengthAdjust="spacing" textLength="209.0888" x="279.5833" y="569.6129">+asignarItinerario(ruta, ...) : void</text><text fill="#000000" font-family="DejaVu Sans" font-size="12.6042" lengthAdjust="spacing" textLength="164.6173" x="279.5833" y="584.2849">+nodoActual(minuto) : int</text></g><!--class ColaEventos--><g id="elem_ColaEventos"><rect codeLine="37" fill="#FDFDFD" height="70.5941" id="ColaEventos" rx="2.8646" ry="2.8646" style="stroke:#4A5A6A;stroke-width:0.5729;" width="233.7875" x="578.6458" y="315.4443"/><rect fill="#E8EEF4" height="32.0833" rx="2.8646" ry="2.8646" style="stroke:#E8EEF4;stroke-width:0.5729;" width="233.7875" x="578.6458" y="315.4443"/><rect fill="#E8EEF4" height="2.8646" style="stroke:#E8EEF4;stroke-width:0.5729;" width="233.7875" x="578.6458" y="344.6631"/><rect codeLine="37" fill="none" height="70.5941" id="ColaEventos" rx="2.8646" ry="2.8646" style="stroke:#4A5A6A;stroke-width:0.5729;" width="233.7875" x="578.6458" y="315.4443"/><ellipse cx="652.1809" cy="331.486" fill="#ADD1B2" rx="10.3125" ry="10.3125" style="stroke:#181818;stroke-width:1.1458;"/><path d="M653.6848,335.8008 Q653.2551,336.0335 652.7717,336.141 Q652.3062,336.2484 651.7691,336.2484 Q649.925,336.2484 648.9403,335.0309 Q647.9556,333.7956 647.9556,331.486 Q647.9556,329.1585 648.9403,327.9411 Q649.925,326.7057 651.7691,326.7057 Q652.3062,326.7057 652.7717,326.8311 Q653.2551,326.9385 653.6848,327.1533 L653.6848,329.1764 Q653.2014,328.7467 652.7538,328.5498 Q652.3241,328.3529 651.8586,328.3529 Q650.8739,328.3529 650.3547,329.1406 Q649.8534,329.9284 649.8534,331.486 Q649.8534,333.0436 650.3547,333.8314 Q650.8739,334.6191 651.8586,334.6191 Q652.3241,334.6191 652.7538,334.4222 Q653.2014,334.2253 653.6848,333.7777 L653.6848,335.8008 Z " fill="#000000"/><text fill="#000000" font-family="DejaVu Sans" font-size="12.6042" lengthAdjust="spacing" textLength="78.1237" x="672.2329" y="335.8495">ColaEventos</text><line style="stroke:#4A5A6A;stroke-width:0.5729;" x1="579.7917" x2="811.2875" y1="347.5277" y2="347.5277"/><text fill="#000000" font-family="DejaVu Sans" font-size="12.6042" lengthAdjust="spacing" textLength="220.0375" x="585.5208" y="363.8105">+programar(minuto, tipo) : Evento</text><text fill="#000000" font-family="DejaVu Sans" font-size="12.6042" lengthAdjust="spacing" textLength="134.4732" x="585.5208" y="378.4825">+siguiente() : Evento</text></g><!--class Evento--><g id="elem_Evento"><rect codeLine="42" fill="#FDFDFD" height="79.3132" id="Evento" rx="2.8646" ry="2.8646" style="stroke:#4A5A6A;stroke-width:0.5729;" width="120.8977" x="634.7917" y="497.6318"/><rect fill="#E8EEF4" height="40.8024" rx="2.8646" ry="2.8646" style="stroke:#E8EEF4;stroke-width:0.5729;" width="120.8977" x="634.7917" y="497.6318"/><rect fill="#E8EEF4" height="2.8646" style="stroke:#E8EEF4;stroke-width:0.5729;" width="120.8977" x="634.7917" y="535.5697"/><rect codeLine="42" fill="none" height="79.3132" id="Evento" rx="2.8646" ry="2.8646" style="stroke:#4A5A6A;stroke-width:0.5729;" width="120.8977" x="634.7917" y="497.6318"/><ellipse cx="666.434" cy="518.033" fill="#ADD1B2" rx="10.3125" ry="10.3125" style="stroke:#181818;stroke-width:1.1458;"/><path d="M667.9379,522.3478 Q667.5082,522.5806 667.0248,522.688 Q666.5593,522.7954 666.0222,522.7954 Q664.1781,522.7954 663.1934,521.578 Q662.2087,520.3426 662.2087,518.033 Q662.2087,515.7056 663.1934,514.4881 Q664.1781,513.2528 666.0222,513.2528 Q666.5593,513.2528 667.0248,513.3781 Q667.5082,513.4855 667.9379,513.7004 L667.9379,515.7235 Q667.4545,515.2938 667.0069,515.0968 Q666.5772,514.8999 666.1117,514.8999 Q665.127,514.8999 664.6078,515.6877 Q664.1065,516.4754 664.1065,518.033 Q664.1065,519.5907 664.6078,520.3784 Q665.127,521.1662 666.1117,521.1662 Q666.5772,521.1662 667.0069,520.9692 Q667.4545,520.7723 667.9379,520.3247 L667.9379,522.3478 Z " fill="#000000"/><text fill="#000000" font-family="DejaVu Sans" font-size="12.6042" font-style="italic" lengthAdjust="spacing" textLength="56.1833" x="681.6138" y="515.0605">&#171;record&#187;</text><text fill="#000000" font-family="DejaVu Sans" font-size="12.6042" lengthAdjust="spacing" textLength="43.8192" x="687.7958" y="529.7325">Evento</text><line style="stroke:#4A5A6A;stroke-width:0.5729;" x1="635.9375" x2="754.5436" y1="538.4342" y2="538.4342"/><text fill="#000000" font-family="DejaVu Sans" font-size="12.6042" lengthAdjust="spacing" textLength="83.8719" x="641.6667" y="554.7171">minuto : long</text><text fill="#000000" font-family="DejaVu Sans" font-size="12.6042" lengthAdjust="spacing" textLength="107.1477" x="641.6667" y="569.3891">tipo : TipoEvento</text></g><!--class GeneradorAverias--><g id="elem_GeneradorAverias"><rect codeLine="47" fill="#FDFDFD" height="55.922" id="GeneradorAverias" rx="2.8646" ry="2.8646" style="stroke:#4A5A6A;stroke-width:0.5729;" width="343.1939" x="852.5" y="322.8923"/><rect fill="#E8EEF4" height="32.0833" rx="2.8646" ry="2.8646" style="stroke:#E8EEF4;stroke-width:0.5729;" width="343.1939" x="852.5" y="322.8923"/><rect fill="#E8EEF4" height="2.8646" style="stroke:#E8EEF4;stroke-width:0.5729;" width="343.1939" x="852.5" y="352.111"/><rect codeLine="47" fill="none" height="55.922" id="GeneradorAverias" rx="2.8646" ry="2.8646" style="stroke:#4A5A6A;stroke-width:0.5729;" width="343.1939" x="852.5" y="322.8923"/><ellipse cx="962.8628" cy="338.9339" fill="#ADD1B2" rx="10.3125" ry="10.3125" style="stroke:#181818;stroke-width:1.1458;"/><path d="M964.3667,343.2487 Q963.937,343.4814 963.4536,343.5889 Q962.9882,343.6963 962.451,343.6963 Q960.607,343.6963 959.6223,342.4788 Q958.6376,341.2435 958.6376,338.9339 Q958.6376,336.6064 959.6223,335.389 Q960.607,334.1536 962.451,334.1536 Q962.9882,334.1536 963.4536,334.279 Q963.937,334.3864 964.3667,334.6012 L964.3667,336.6243 Q963.8833,336.1947 963.4357,335.9977 Q963.0061,335.8008 962.5406,335.8008 Q961.5559,335.8008 961.0367,336.5885 Q960.5354,337.3763 960.5354,338.9339 Q960.5354,340.4915 961.0367,341.2793 Q961.5559,342.0671 962.5406,342.0671 Q963.0061,342.0671 963.4357,341.8701 Q963.8833,341.6732 964.3667,341.2256 L964.3667,343.2487 Z " fill="#000000"/><text fill="#000000" font-family="DejaVu Sans" font-size="12.6042" lengthAdjust="spacing" textLength="113.8745" x="982.9149" y="343.2974">GeneradorAverias</text><line style="stroke:#4A5A6A;stroke-width:0.5729;" x1="853.6458" x2="1194.548" y1="354.9756" y2="354.9756"/><text fill="#000000" font-family="DejaVu Sans" font-size="12.6042" lengthAdjust="spacing" textLength="329.4439" x="859.375" y="371.2584">+averiasDelTurno(minuto, unidades) : List&lt;Averia&gt;</text></g><!--class InstantaneaSimulacion--><g id="elem_InstantaneaSimulacion"><rect codeLine="51" fill="#FDFDFD" height="108.6572" id="InstantaneaSimulacion" rx="2.8646" ry="2.8646" style="stroke:#4A5A6A;stroke-width:0.5729;" width="223.5404" x="1235.7813" y="296.5381"/><rect fill="#E8EEF4" height="40.8024" rx="2.8646" ry="2.8646" style="stroke:#E8EEF4;stroke-width:0.5729;" width="223.5404" x="1235.7813" y="296.5381"/><rect fill="#E8EEF4" height="2.8646" style="stroke:#E8EEF4;stroke-width:0.5729;" width="223.5404" x="1235.7813" y="334.4759"/><rect codeLine="51" fill="none" height="108.6572" id="InstantaneaSimulacion" rx="2.8646" ry="2.8646" style="stroke:#4A5A6A;stroke-width:0.5729;" width="223.5404" x="1235.7813" y="296.5381"/><ellipse cx="1271.9496" cy="316.9393" fill="#ADD1B2" rx="10.3125" ry="10.3125" style="stroke:#181818;stroke-width:1.1458;"/><path d="M1273.4535,321.2541 Q1273.0239,321.4868 1272.5405,321.5942 Q1272.075,321.7017 1271.5379,321.7017 Q1269.6938,321.7017 1268.7091,320.4842 Q1267.7244,319.2489 1267.7244,316.9393 Q1267.7244,314.6118 1268.7091,313.3944 Q1269.6938,312.159 1271.5379,312.159 Q1272.075,312.159 1272.5405,312.2843 Q1273.0239,312.3918 1273.4535,312.6066 L1273.4535,314.6297 Q1272.9701,314.2 1272.5226,314.0031 Q1272.0929,313.8062 1271.6274,313.8062 Q1270.6427,313.8062 1270.1235,314.5939 Q1269.6222,315.3817 1269.6222,316.9393 Q1269.6222,318.4969 1270.1235,319.2847 Q1270.6427,320.0724 1271.6274,320.0724 Q1272.0929,320.0724 1272.5226,319.8755 Q1272.9701,319.6785 1273.4535,319.231 L1273.4535,321.2541 Z " fill="#000000"/><text fill="#000000" font-family="DejaVu Sans" font-size="12.6042" font-style="italic" lengthAdjust="spacing" textLength="56.1833" x="1334.4276" y="313.9667">&#171;record&#187;</text><text fill="#000000" font-family="DejaVu Sans" font-size="12.6042" lengthAdjust="spacing" textLength="144.1848" x="1290.4269" y="328.6388">InstantaneaSimulacion</text><line style="stroke:#4A5A6A;stroke-width:0.5729;" x1="1236.9271" x2="1458.1759" y1="337.3405" y2="337.3405"/><text fill="#000000" font-family="DejaVu Sans" font-size="12.6042" lengthAdjust="spacing" textLength="142.5785" x="1242.6563" y="353.6233">minutoSimulado : long</text><text fill="#000000" font-family="DejaVu Sans" font-size="12.6042" lengthAdjust="spacing" textLength="188.7363" x="1242.6563" y="368.2953">unidades : List&lt;VistaUnidad&gt;</text><text fill="#000000" font-family="DejaVu Sans" font-size="12.6042" lengthAdjust="spacing" textLength="209.7904" x="1242.6563" y="382.9674">almacenes : List&lt;VistaAlmacen&gt;</text><text fill="#000000" font-family="DejaVu Sans" font-size="12.6042" lengthAdjust="spacing" textLength="189.7395" x="1242.6563" y="397.6394">metricas : MetricasSimulacion</text></g><!--class ResultadoSimulacion--><g id="elem_ResultadoSimulacion"><rect codeLine="58" fill="#FDFDFD" height="93.9852" id="ResultadoSimulacion" rx="2.8646" ry="2.8646" style="stroke:#4A5A6A;stroke-width:0.5729;" width="203.4895" x="1499.8958" y="303.986"/><rect fill="#E8EEF4" height="40.8024" rx="2.8646" ry="2.8646" style="stroke:#E8EEF4;stroke-width:0.5729;" width="203.4895" x="1499.8958" y="303.986"/><rect fill="#E8EEF4" height="2.8646" style="stroke:#E8EEF4;stroke-width:0.5729;" width="203.4895" x="1499.8958" y="341.9238"/><rect codeLine="58" fill="none" height="93.9852" id="ResultadoSimulacion" rx="2.8646" ry="2.8646" style="stroke:#4A5A6A;stroke-width:0.5729;" width="203.4895" x="1499.8958" y="303.986"/><ellipse cx="1532.4916" cy="324.3872" fill="#ADD1B2" rx="10.3125" ry="10.3125" style="stroke:#181818;stroke-width:1.1458;"/><path d="M1533.9955,328.702 Q1533.5658,328.9347 1533.0824,329.0422 Q1532.6169,329.1496 1532.0798,329.1496 Q1530.2357,329.1496 1529.251,327.9321 Q1528.2663,326.6968 1528.2663,324.3872 Q1528.2663,322.0597 1529.251,320.8423 Q1530.2357,319.6069 1532.0798,319.6069 Q1532.6169,319.6069 1533.0824,319.7323 Q1533.5658,319.8397 1533.9955,320.0545 L1533.9955,322.0776 Q1533.5121,321.6479 1533.0645,321.451 Q1532.6348,321.2541 1532.1693,321.2541 Q1531.1846,321.2541 1530.6654,322.0418 Q1530.1641,322.8296 1530.1641,324.3872 Q1530.1641,325.9448 1530.6654,326.7326 Q1531.1846,327.5203 1532.1693,327.5203 Q1532.6348,327.5203 1533.0645,327.3234 Q1533.5121,327.1265 1533.9955,326.6789 L1533.9955,328.702 Z " fill="#000000"/><text fill="#000000" font-family="DejaVu Sans" font-size="12.6042" font-style="italic" lengthAdjust="spacing" textLength="56.1833" x="1588.1197" y="321.4146">&#171;record&#187;</text><text fill="#000000" font-family="DejaVu Sans" font-size="12.6042" lengthAdjust="spacing" textLength="132.073" x="1550.1749" y="336.0867">ResultadoSimulacion</text><line style="stroke:#4A5A6A;stroke-width:0.5729;" x1="1501.0417" x2="1702.2395" y1="344.7884" y2="344.7884"/><text fill="#000000" font-family="DejaVu Sans" font-size="12.6042" lengthAdjust="spacing" textLength="143.9694" x="1506.7708" y="361.0712">estado : EstadoCorrida</text><text fill="#000000" font-family="DejaVu Sans" font-size="12.6042" lengthAdjust="spacing" textLength="113.8375" x="1506.7708" y="375.7433">minutoFinal : long</text><text fill="#000000" font-family="DejaVu Sans" font-size="12.6042" lengthAdjust="spacing" textLength="189.7395" x="1506.7708" y="390.4153">metricas : MetricasSimulacion</text></g><!--class ObservadorSimulacion--><g id="elem_ObservadorSimulacion"><rect codeLine="64" fill="#FDFDFD" height="32.0833" id="ObservadorSimulacion" rx="2.8646" ry="2.8646" style="stroke:#4A5A6A;stroke-width:0.5729;" width="174.711" x="1743.9583" y="334.9235"/><rect fill="#E8EEF4" height="32.0833" rx="2.8646" ry="2.8646" style="stroke:#E8EEF4;stroke-width:0.5729;" width="174.711" x="1743.9583" y="334.9235"/><rect fill="#E8EEF4" height="2.8646" style="stroke:#E8EEF4;stroke-width:0.5729;" width="174.711" x="1743.9583" y="364.1423"/><rect codeLine="64" fill="none" height="32.0833" id="ObservadorSimulacion" rx="2.8646" ry="2.8646" style="stroke:#4A5A6A;stroke-width:0.5729;" width="174.711" x="1743.9583" y="334.9235"/><ellipse cx="1758.8542" cy="350.9652" fill="#B4A7E5" rx="10.3125" ry="10.3125" style="stroke:#181818;stroke-width:1.1458;"/><path d="M1755.3271,347.9574 L1755.3271,346.3639 L1760.8057,346.3639 L1760.8057,347.9574 L1758.9795,347.9574 L1758.9795,353.9551 L1760.8057,353.9551 L1760.8057,355.5485 L1755.3271,355.5485 L1755.3271,353.9551 L1757.1533,353.9551 L1757.1533,347.9574 L1755.3271,347.9574 Z " fill="#000000"/><text fill="#000000" font-family="DejaVu Sans" font-size="12.6042" font-style="italic" lengthAdjust="spacing" textLength="142.6277" x="1772.6042" y="355.3286">ObservadorSimulacion</text></g><!--class Algoritmo--><g id="elem_Algoritmo"><rect codeLine="65" fill="#FDFDFD" height="32.0833" id="Algoritmo" rx="2.8646" ry="2.8646" style="stroke:#4A5A6A;stroke-width:0.5729;" width="93.5348" x="1958.2292" y="334.9235"/><rect fill="#E8EEF4" height="32.0833" rx="2.8646" ry="2.8646" style="stroke:#E8EEF4;stroke-width:0.5729;" width="93.5348" x="1958.2292" y="334.9235"/><rect fill="#E8EEF4" height="2.8646" style="stroke:#E8EEF4;stroke-width:0.5729;" width="93.5348" x="1958.2292" y="364.1423"/><rect codeLine="65" fill="none" height="32.0833" id="Algoritmo" rx="2.8646" ry="2.8646" style="stroke:#4A5A6A;stroke-width:0.5729;" width="93.5348" x="1958.2292" y="334.9235"/><ellipse cx="1973.125" cy="350.9652" fill="#B4A7E5" rx="10.3125" ry="10.3125" style="stroke:#181818;stroke-width:1.1458;"/><path d="M1969.598,347.9574 L1969.598,346.3639 L1975.0765,346.3639 L1975.0765,347.9574 L1973.2503,347.9574 L1973.2503,353.9551 L1975.0765,353.9551 L1975.0765,355.5485 L1969.598,355.5485 L1969.598,353.9551 L1971.4242,353.9551 L1971.4242,347.9574 L1969.598,347.9574 Z " fill="#000000"/><text fill="#000000" font-family="DejaVu Sans" font-size="12.6042" font-style="italic" lengthAdjust="spacing" textLength="61.4515" x="1986.875" y="355.3286">Algoritmo</text></g><!--class UnidadTransporte--><g id="elem_UnidadTransporte"><rect codeLine="66" fill="#FDFDFD" height="32.0833" id="UnidadTransporte" rx="2.8646" ry="2.8646" style="stroke:#4A5A6A;stroke-width:0.5729;" width="145.2747" x="311.0938" y="661.486"/><rect fill="#E8EEF4" height="32.0833" rx="2.8646" ry="2.8646" style="stroke:#E8EEF4;stroke-width:0.5729;" width="145.2747" x="311.0938" y="661.486"/><rect fill="#E8EEF4" height="2.8646" style="stroke:#E8EEF4;stroke-width:0.5729;" width="145.2747" x="311.0938" y="690.7048"/><rect codeLine="66" fill="none" height="32.0833" id="UnidadTransporte" rx="2.8646" ry="2.8646" style="stroke:#4A5A6A;stroke-width:0.5729;" width="145.2747" x="311.0938" y="661.486"/><ellipse cx="325.9896" cy="677.5277" fill="#ADD1B2" rx="10.3125" ry="10.3125" style="stroke:#181818;stroke-width:1.1458;"/><path d="M327.4935,681.8424 Q327.0638,682.0752 326.5804,682.1826 Q326.1149,682.29 325.5778,682.29 Q323.7337,682.29 322.749,681.0726 Q321.7643,679.8372 321.7643,677.5277 Q321.7643,675.2002 322.749,673.9827 Q323.7337,672.7474 325.5778,672.7474 Q326.1149,672.7474 326.5804,672.8727 Q327.0638,672.9801 327.4935,673.195 L327.4935,675.2181 Q327.0101,674.7884 326.5625,674.5915 Q326.1328,674.3945 325.6673,674.3945 Q324.6826,674.3945 324.1634,675.1823 Q323.6621,675.9701 323.6621,677.5277 Q323.6621,679.0853 324.1634,679.873 Q324.6826,680.6608 325.6673,680.6608 Q326.1328,680.6608 326.5625,680.4639 Q327.0101,680.2669 327.4935,679.8193 L327.4935,681.8424 Z " fill="#000000"/><text fill="#000000" font-family="DejaVu Sans" font-size="12.6042" lengthAdjust="spacing" textLength="113.1913" x="339.7396" y="681.8911">UnidadTransporte</text></g><!--class DatosEscenario--><g id="elem_DatosEscenario"><rect codeLine="67" fill="#FDFDFD" height="93.9852" id="DatosEscenario" rx="2.8646" ry="2.8646" style="stroke:#4A5A6A;stroke-width:0.5729;" width="177.7149" x="2092.8646" y="303.986"/><rect fill="#E8EEF4" height="40.8024" rx="2.8646" ry="2.8646" style="stroke:#E8EEF4;stroke-width:0.5729;" width="177.7149" x="2092.8646" y="303.986"/><rect fill="#E8EEF4" height="2.8646" style="stroke:#E8EEF4;stroke-width:0.5729;" width="177.7149" x="2092.8646" y="341.9238"/><rect codeLine="67" fill="none" height="93.9852" id="DatosEscenario" rx="2.8646" ry="2.8646" style="stroke:#4A5A6A;stroke-width:0.5729;" width="177.7149" x="2092.8646" y="303.986"/><ellipse cx="2129.2074" cy="324.3872" fill="#ADD1B2" rx="10.3125" ry="10.3125" style="stroke:#181818;stroke-width:1.1458;"/><path d="M2130.7114,328.702 Q2130.2817,328.9347 2129.7983,329.0422 Q2129.3328,329.1496 2128.7957,329.1496 Q2126.9516,329.1496 2125.9669,327.9321 Q2124.9822,326.6968 2124.9822,324.3872 Q2124.9822,322.0597 2125.9669,320.8423 Q2126.9516,319.6069 2128.7957,319.6069 Q2129.3328,319.6069 2129.7983,319.7323 Q2130.2817,319.8397 2130.7114,320.0545 L2130.7114,322.0776 Q2130.228,321.6479 2129.7804,321.451 Q2129.3507,321.2541 2128.8852,321.2541 Q2127.9005,321.2541 2127.3813,322.0418 Q2126.88,322.8296 2126.88,324.3872 Q2126.88,325.9448 2127.3813,326.7326 Q2127.9005,327.5203 2128.8852,327.5203 Q2129.3507,327.5203 2129.7804,327.3234 Q2130.228,327.1265 2130.7114,326.6789 L2130.7114,328.702 Z " fill="#000000"/><text fill="#000000" font-family="DejaVu Sans" font-size="12.6042" font-style="italic" lengthAdjust="spacing" textLength="56.1833" x="2168.6176" y="321.4146">&#171;record&#187;</text><text fill="#000000" font-family="DejaVu Sans" font-size="12.6042" lengthAdjust="spacing" textLength="97.9715" x="2147.7235" y="336.0867">DatosEscenario</text><line style="stroke:#4A5A6A;stroke-width:0.5729;" x1="2094.0104" x2="2269.4337" y1="344.7884" y2="344.7884"/><text fill="#000000" font-family="DejaVu Sans" font-size="12.6042" lengthAdjust="spacing" textLength="147.5204" x="2099.7396" y="361.0712">pedidos : List&lt;Pedido&gt;</text><text fill="#000000" font-family="DejaVu Sans" font-size="12.6042" lengthAdjust="spacing" textLength="163.9649" x="2099.7396" y="375.7433">bloqueos : List&lt;Bloqueo&gt;</text><text fill="#000000" font-family="DejaVu Sans" font-size="12.6042" lengthAdjust="spacing" textLength="105.7076" x="2099.7396" y="390.4153">flota : FlotaLeida</text></g><!--link MotorSimulacion to ConfiguracionEscenario--><g id="link_MotorSimulacion_ConfiguracionEscenario"><path codeLine="73" d="M1196.101,132.6037 C974.0615,142.2058 549.4844,175.2745 208.5417,289.0902 C202.125,291.2329 201.9678,291.0286 195.5397,293.7901 " fill="none" id="MotorSimulacion-to-ConfiguracionEscenario" style="stroke:#4A5A6A;stroke-width:1.1458;"/><polygon fill="#4A5A6A" points="189.2229,296.5037,200.5072,296.6445,194.4869,294.2424,196.889,288.2221,189.2229,296.5037" style="stroke:#4A5A6A;stroke-width:1.1458;"/></g><!--reverse link MotorSimulacion to EstadoSimulacion--><g id="link_MotorSimulacion_EstadoSimulacion"><path codeLine="74" d="M1182.6392,155.4762 C1022.6579,182.8157 777.1844,228.911 558.0208,289.0902 C551.6958,290.8318 545.2563,292.6766 538.7823,294.6131 " fill="none" id="MotorSimulacion-backto-EstadoSimulacion" style="stroke:#4A5A6A;stroke-width:1.1458;"/><polygon fill="#4A5A6A" points="1196.1927,153.16,1188.6439,149.8002,1182.6392,155.4762,1190.188,158.8359,1196.1927,153.16" style="stroke:#4A5A6A;stroke-width:1.1458;"/><text fill="#000000" font-family="DejaVu Sans" font-size="12.6042" lengthAdjust="spacing" textLength="8.0192" x="1178.9776" y="152.4148">1</text><text fill="#000000" font-family="DejaVu Sans" font-size="12.6042" lengthAdjust="spacing" textLength="8.0192" x="547.9661" y="288.9331">1</text></g><!--reverse link MotorSimulacion to ColaEventos--><g id="link_MotorSimulacion_ColaEventos"><path codeLine="75" d="M1182.6639,174.5825 C1079.092,204.5575 952.5083,243.6464 831.875,289.0902 C811.0208,296.9506 788.7917,306.3808 768.4646,315.4443 " fill="none" id="MotorSimulacion-backto-ColaEventos" style="stroke:#4A5A6A;stroke-width:1.1458;"/><polygon fill="#4A5A6A" points="1195.8719,170.76,1187.9937,168.2686,1182.6639,174.5825,1190.5421,177.0739,1195.8719,170.76" style="stroke:#4A5A6A;stroke-width:1.1458;"/><text fill="#000000" font-family="DejaVu Sans" font-size="12.6042" lengthAdjust="spacing" textLength="8.0192" x="1179.1171" y="171.0816">1</text><text fill="#000000" font-family="DejaVu Sans" font-size="12.6042" lengthAdjust="spacing" textLength="8.0192" x="778.6666" y="303.2267">1</text></g><!--reverse link MotorSimulacion to GeneradorAverias--><g id="link_MotorSimulacion_GeneradorAverias"><path codeLine="76" d="M1225.4078,212.2356 C1165.4807,253.245 1106.5198,293.5933 1063.7344,322.8808 " fill="none" id="MotorSimulacion-backto-GeneradorAverias" style="stroke:#4A5A6A;stroke-width:1.1458;"/><polygon fill="#4A5A6A" points="1236.7552,204.4704,1228.4931,204.5705,1225.4078,212.2356,1233.6699,212.1355,1236.7552,204.4704" style="stroke:#4A5A6A;stroke-width:1.1458;"/></g><!--link MotorSimulacion to Algoritmo--><g id="link_MotorSimulacion_Algoritmo"><path codeLine="77" d="M1499.0365,149.8943 C1622.7521,171.7912 1799.1417,213.6943 1937.6042,289.0902 C1959.2146,300.8579 1974.9616,315.7658 1987.5772,329.5731 " fill="none" id="MotorSimulacion-to-Algoritmo" style="stroke:#4A5A6A;stroke-width:1.1458;"/><polygon fill="#4A5A6A" points="1992.2146,334.6485,1988.6421,323.9437,1988.3501,330.419,1981.8749,330.1269,1992.2146,334.6485" style="stroke:#4A5A6A;stroke-width:1.1458;"/><text fill="#000000" font-family="DejaVu Sans" font-size="12.6042" lengthAdjust="spacing" textLength="66.2457" x="1864.2708" y="251.5188">replanifica</text></g><!--reverse link MotorSimulacion to ObservadorSimulacion--><g id="link_MotorSimulacion_ObservadorSimulacion"><path codeLine="78" d="M1511.8792,194.213 C1581.0532,222.8359 1650.8021,253.3058 1723.3333,289.0902 C1752.4031,303.436 1784.6469,321.987 1806.2115,334.786 " fill="none" id="MotorSimulacion-backto-ObservadorSimulacion" style="stroke:#4A5A6A;stroke-width:1.1458;"/><polygon fill="none" points="1499.174,188.9558,1503.7742,195.8195,1511.8792,194.213,1507.279,187.3493,1499.174,188.9558" style="stroke:#4A5A6A;stroke-width:1.1458;"/><text fill="#000000" font-family="DejaVu Sans" font-size="12.6042" lengthAdjust="spacing" textLength="46.7363" x="1644.2708" y="251.5188">notifica</text><text fill="#000000" font-family="DejaVu Sans" font-size="12.6042" lengthAdjust="spacing" textLength="22.3342" x="1768.8192" y="322.851">0..*</text></g><!--link MotorSimulacion to DatosEscenario--><g id="link_MotorSimulacion_DatosEscenario"><path codeLine="79" d="M1498.9333,149.1495 C1619.6583,167.2995 1792.324,197.3433 1939.8958,238.6735 C2000.7396,255.712 2015.5323,262.4266 2072.8125,289.0902 C2082.5292,293.6162 2086.4595,295.4567 2096.3251,300.6474 " fill="none" id="MotorSimulacion-to-DatosEscenario" style="stroke:#4A5A6A;stroke-width:1.1458;"/><polygon fill="#4A5A6A" points="2102.4094,303.8485,2095.4171,294.9906,2097.3391,301.1809,2091.1489,303.103,2102.4094,303.8485" style="stroke:#4A5A6A;stroke-width:1.1458;"/><text fill="#000000" font-family="DejaVu Sans" font-size="12.6042" lengthAdjust="spacing" textLength="108.0278" x="1993.75" y="251.5188">datos de entrada</text></g><!--link MotorSimulacion to InstantaneaSimulacion--><g id="link_MotorSimulacion_InstantaneaSimulacion"><path codeLine="80" d="M1347.5,204.4704 C1347.5,234.7318 1347.5,261.9798 1347.5,289.56 " fill="none" id="MotorSimulacion-to-InstantaneaSimulacion" style="stroke:#4A5A6A;stroke-width:1.1458;stroke-dasharray:7.0,7.0;"/><polygon fill="#4A5A6A" points="1347.5,296.435,1352.0833,286.1225,1347.5,290.7058,1342.9167,286.1225,1347.5,296.435" style="stroke:#4A5A6A;stroke-width:1.1458;"/><text fill="#000000" font-family="DejaVu Sans" font-size="12.6042" lengthAdjust="spacing" textLength="44.4038" x="1348.6458" y="251.5188">genera</text></g><!--link MotorSimulacion to ResultadoSimulacion--><g id="link_MotorSimulacion_ResultadoSimulacion"><path codeLine="81" d="M1434.6865,204.4704 C1472.6594,237.4818 1510.7256,270.5781 1543.737,299.2698 " fill="none" id="MotorSimulacion-to-ResultadoSimulacion" style="stroke:#4A5A6A;stroke-width:1.1458;stroke-dasharray:7.0,7.0;"/><polygon fill="#4A5A6A" points="1548.926,303.7798,1544.1492,293.5555,1544.6019,300.0214,1538.1359,300.4741,1548.926,303.7798" style="stroke:#4A5A6A;stroke-width:1.1458;"/><text fill="#000000" font-family="DejaVu Sans" font-size="12.6042" lengthAdjust="spacing" textLength="44.4038" x="1491.875" y="251.5188">genera</text></g><!--reverse link EstadoSimulacion to UnidadEnCurso--><g id="link_EstadoSimulacion_UnidadEnCurso"><path codeLine="82" d="M383.8542,427.0943 C383.8542,449.461 383.8542,460.8048 383.8542,482.4495 " fill="none" id="EstadoSimulacion-backto-UnidadEnCurso" style="stroke:#4A5A6A;stroke-width:1.1458;"/><polygon fill="#4A5A6A" points="383.8542,413.3443,379.2708,420.2193,383.8542,427.0943,388.4375,420.2193,383.8542,413.3443" style="stroke:#4A5A6A;stroke-width:1.1458;"/><text fill="#000000" font-family="DejaVu Sans" font-size="12.6042" lengthAdjust="spacing" textLength="8.0192" x="376.6198" y="433.5387">1</text><text fill="#000000" font-family="DejaVu Sans" font-size="12.6042" lengthAdjust="spacing" textLength="22.3342" x="360.3498" y="470.6368">1..*</text></g><!--link UnidadEnCurso to UnidadTransporte--><g id="link_UnidadEnCurso_UnidadTransporte"><path codeLine="83" d="M383.8542,591.6933 C383.8542,616.7298 383.8542,637.8016 383.8542,654.5079 " fill="none" id="UnidadEnCurso-to-UnidadTransporte" style="stroke:#4A5A6A;stroke-width:1.1458;"/><polygon fill="#4A5A6A" points="383.8542,661.3829,388.4375,651.0704,383.8542,655.6537,379.2708,651.0704,383.8542,661.3829" style="stroke:#4A5A6A;stroke-width:1.1458;"/></g><!--reverse link ColaEventos to Evento--><g id="link_ColaEventos_Evento"><path codeLine="84" d="M695.5208,400.4537 C695.5208,431.9756 695.5208,464.735 695.5208,497.4485 " fill="none" id="ColaEventos-backto-Evento" style="stroke:#4A5A6A;stroke-width:1.1458;"/><polygon fill="#4A5A6A" points="695.5208,386.7037,690.9375,393.5787,695.5208,400.4537,700.1042,393.5787,695.5208,386.7037" style="stroke:#4A5A6A;stroke-width:1.1458;"/><text fill="#000000" font-family="DejaVu Sans" font-size="12.6042" lengthAdjust="spacing" textLength="8.0192" x="688.078" y="406.9275">1</text><text fill="#000000" font-family="DejaVu Sans" font-size="12.6042" lengthAdjust="spacing" textLength="22.3342" x="671.4918" y="485.2799">0..*</text></g><!--SRC=[XLLDRzim3BtdLsWzfHynDkmM50QoDXqAjDYmfhkh5cDmaCLCadCPzjz7IOxbECuA57N53-dnFPBzWARIhG81pgEc0jj6ppnw3U9p8LwmQRMiaCnIDEJ92eKMQrGaTdo0FHXFRZQhj7HEF8U8d2B-p8HOY8hC5klM9jjIt0tFQrU1aHOfXafTaqNV48Uj3dz73xqvi7kfo89ZvnCwV_kjj-KtIuw-5l0BgjPBEx_as1_WMkqvB4V5e4gQ2dGNj2TKqOh6UMdu1sHqFERpADz2pIYijAizM9JpYXJMz6fGINKZFEwel_ZlWQ7fsiNjhOMAh2hBo5d8vTGDVuRyx2msOEzH1WAealfUUc0xLuSDdTgTr9wUqRGi4RlGU3OEANxn5asTqQtTCKsTW3jGB7XF-_TuB3l16ia0ioQhPEXaC9v9OeRJ3JU1Sf_eQIAiGD0RaGRPIKB6jGtQHnCQAvGzxrx8kPTzATUY0QwWaYugzTmT1ZBrbILLrkQkjOwwiYntI6WF_gHQeemTxqdJ-8XqMBC4ZnuDs8WfPDw8eYYEEiUGebNbMwddkRg0TA2-bkiqCX73DKjAjPKDKvHISj-ak1Z4xxV89vWF75cqU1wtKBgEmpMnmiSjDRhWAuIwU8fIpGTeYGvt3thJMaCzm3PI2Uwobpm6bld2oP6P1fZyQW3qSFtXzf_yIoRvojY-euQB_a7N7LhYdOQOM0fZX12d8J0U_xWZQnb53_q1ZTGPzxllSYU0tJ9CCRMt1kwy-8Qzkx7IEDwvFDd9p4DExkmAEJkpRvf-jv0zNz8vkBQQuaGyXEyJX68PztYfBnRbkHK-3htuT26k5elu7U-M_mOF1kKaBiICMtOIv6gmwIpij3IuPLbEOYay-h4ehYucbU5iGtuwDJmpqc4fL328y1-LrvzKfrb5KPwPaQMeOsMJALCjsoUShEvCPwpiQ07EZjTXgEAaoOQxghyhiPJC_m00]--></g></svg>